
<svg width="337" height="256" viewBox="0 0 337 256" fill="none" xmlns="http://www.w3.org/2000/svg">
<path d="M206.834 0.600002C197.882 -1.85 188.562 3.1 185.982 11.6L118.582 235.6C116.002 244.1 121.215 252.95 130.167 255.4C139.118 257.85 148.438 252.9 151.018 244.4L218.418 20.4C220.999 11.9 215.786 3.05 206.834 0.600002ZM249.275 60.65C242.693 66.9 242.693 77.05 249.275 83.3L296.297 128L249.222 172.7C242.64 178.95 242.64 189.1 249.222 195.35C255.804 201.6 266.493 201.6 273.076 195.35L332.051 139.35C338.633 133.1 338.633 122.95 332.051 116.7L273.076 60.7C266.493 54.45 255.804 54.45 249.222 60.7L249.275 60.65ZM87.7782 60.65C81.1962 54.4 70.507 54.4 63.9249 60.65L4.94995 116.65C-1.63208 122.9 -1.63208 133.05 4.94995 139.3L63.9249 195.3C70.507 201.55 81.1962 201.55 87.7782 195.3C94.3603 189.05 94.3603 178.9 87.7782 172.65L40.7035 128L87.7782 83.3C94.3603 77.05 94.3603 66.9 87.7782 60.65Z" fill="#F2D396" fill-opacity="0.15"/>
</svg>
